<svg xmlns="http://www.w3.org/2000/svg" xmlns:xlink="http://www.w3.org/1999/xlink" version="1.1" preserveAspectRatio="none" x="0px" y="0px" viewBox="0 0 100 125"><defs><g id="a"><path fill="#000000" stroke="none" d=" M 57.65 24.9 Q 56.5 26.05 56.5 27.75 56.5 29.25 54.1 30.6 51.9 31.75 50 31.75 48.05 31.75 45.9 30.6 43.5 29.3 43.5 27.75 43.5 26.05 42.35 24.9 41.15 23.75 39.5 23.75 37.55 23.75 29.7 27.85 L 22.2 31.95 Q 21 32.35 20.25 33.35 19.5 34.4 19.5 35.75 L 19.5 43.75 Q 19.5 45.65 21.1 46.95 22.2 47.75 23.5 47.75 24.1 47.75 24.7 47.45 L 32.5 43.95 32.5 68.25 Q 32.5 71.55 34.8 73.9 37.15 76.25 40.5 76.25 L 59.5 76.25 Q 62.8 76.25 65.15 73.9 67.5 71.55 67.5 68.25 L 67.5 43.95 75.2 47.45 Q 75.8 47.75 76.5 47.75 77.7 47.75 78.8 46.95 80.5 45.6 80.5 43.75 L 80.5 35.75 Q 80.5 34.4 79.7 33.35 78.9 32.35 77.7 31.95 74.15 29.9 70.25 27.85 62.4 23.75 60.5 23.75 58.8 23.75 57.65 24.9 Z"/></g></defs><g transform="matrix( 1, 0, 0, 1, 0,0) "><use xlink:href="#a"/></g><text x="0" y="115" fill="#000000" font-size="5px" font-weight="bold" font-family="'Helvetica Neue', Helvetica, Arial-Unicode, Arial, Sans-serif">Created by Ján Slobodník</text><text x="0" y="120" fill="#000000" font-size="5px" font-weight="bold" font-family="'Helvetica Neue', Helvetica, Arial-Unicode, Arial, Sans-serif">from the Noun Project</text></svg>