<svg xmlns="http://www.w3.org/2000/svg" xmlns:xlink="http://www.w3.org/1999/xlink" version="1.1" x="0px" y="0px" viewBox="0 0 64 80" enable-background="new 0 0 64 64" xml:space="preserve"><g><g><path fill="#000000" d="M58.098,60.993c0,0.614-0.497,1.119-1.119,1.119H12.394c-3.582,0-6.492-2.91-6.492-6.492v-5.754    c0-3.549,2.877-6.459,6.426-6.492l0.547-0.008l-0.274-0.473c-0.497-0.854-0.755-1.816-0.755-2.786v-4.801    c0-2.993,2.363-5.439,5.315-5.58h35.787v-0.017h0.323c0.614,0,1.119,0.506,1.119,1.119c0,0.622-0.506,1.119-1.119,1.119H17.444    c-1.849,0-3.358,1.509-3.358,3.358v4.801c0,1.534,1.045,2.877,2.537,3.25l0.042,0.008h40.314c0.622,0,1.119,0.506,1.119,1.128    c0,0.614-0.497,1.119-1.119,1.119h-3.267l-0.05,0.017c-0.133,0.05-0.265,0.075-0.39,0.075H17.444c-0.307,0-0.63-0.025-0.97-0.091    h-4.08c-2.347,0-4.254,1.907-4.254,4.254v5.754c0,2.347,1.907,4.254,4.254,4.254h44.585    C57.601,59.874,58.098,60.379,58.098,60.993z"/><path fill="#000000" d="M52.694,41.618H20.458c-2.192,0-3.97-1.777-3.97-3.97v0c0-2.192,1.777-3.97,3.97-3.97h32.236V41.618z"/><path fill="#000000" d="M55.772,58.204H15.878c-2.954,0-5.349-2.395-5.349-5.349v0c0-2.954,2.395-5.348,5.349-5.348h39.894V58.204    z"/></g><g><path fill="#000000" d="M44.694,15.606v0.174c-0.074-1.007-0.204-1.999-0.52-2.96c-0.317-0.964-0.801-1.824-1.597-2.478    c-0.962-0.791-2.1-1.059-3.311-1.089c-0.451-0.011-0.898,0.015-1.341,0.065c-0.453,0.051-0.901,0.126-1.35,0.212    c-0.248,0.076-0.494,0.165-0.735,0.249c-0.442,0.155-0.799,0.287-1.144,0.362c-0.573,0.019-1.067-0.173-1.776-0.422    c-0.241-0.085-0.487-0.173-0.735-0.249c-0.448-0.085-0.897-0.161-1.35-0.212c-0.443-0.05-0.89-0.076-1.341-0.065    c-1.211,0.03-2.349,0.298-3.311,1.089c-0.796,0.654-1.28,1.514-1.597,2.478c-0.317,0.961-0.446,1.954-0.52,2.96v-0.174    c-0.011,0.224-0.018,0.449-0.022,0.676l0.022,0.889c0.177,1.677,0.712,3.239,1.47,4.729c0.739,1.454,1.714,2.917,2.861,4.081    c0.482,0.488,0.997,0.871,1.549,1.145c0.709,0.352,1.497,0.58,2.277,0.311c0.234-0.081,0.469-0.165,0.697-0.259    c1.004-0.418,2.004-0.398,3.009,0c0.199,0.079,0.389,0.137,0.576,0.186c0.011,0.004,0.022,0.009,0.034,0.013    c0.336,0.116,0.673,0.135,1.006,0.097c0.024-0.002,0.047-0.006,0.07-0.009c0.04-0.006,0.08-0.01,0.12-0.018    c0.455-0.065,0.907-0.237,1.389-0.536c0.132-0.082,0.26-0.172,0.388-0.266c0.27-0.19,0.53-0.408,0.781-0.656    c0.006-0.006,0.012-0.011,0.018-0.017c0.018-0.018,0.037-0.033,0.054-0.051c0.011-0.011,0.022-0.024,0.033-0.035    c1.18-1.125,2.085-2.464,2.828-3.925c0.758-1.49,1.293-3.053,1.47-4.729l0.022-0.889C44.713,16.054,44.705,15.83,44.694,15.606z"/><path fill="#000000" d="M38.839,1.888c0,0,1.598,5.568-4.717,7.303c0.02-0.025,0.077-0.099,0.165-0.214    c0.109-0.143,0.263-0.35,0.442-0.6c0.185-0.247,0.385-0.546,0.605-0.861c0.109-0.158,0.216-0.326,0.328-0.494    c0.109-0.169,0.225-0.338,0.333-0.514c0.107-0.175,0.214-0.349,0.319-0.522c0.104-0.172,0.211-0.34,0.301-0.51    c0.093-0.168,0.182-0.331,0.268-0.485c0.082-0.155,0.17-0.297,0.235-0.437c0.249-0.52,0.421-0.877,0.441-0.919    c-0.022,0.042-0.207,0.39-0.477,0.9c-0.068,0.137-0.161,0.275-0.251,0.427c-0.091,0.15-0.187,0.309-0.285,0.472    c-0.096,0.167-0.21,0.329-0.32,0.497c-0.11,0.167-0.224,0.337-0.337,0.507c-0.115,0.17-0.236,0.334-0.351,0.498    c-0.119,0.163-0.23,0.326-0.346,0.48c-0.231,0.304-0.442,0.592-0.634,0.832c-0.189,0.242-0.349,0.44-0.462,0.576    c-0.096,0.116-0.157,0.19-0.174,0.21c-0.045-0.281-0.104-0.768-0.109-0.833c-0.078-0.921,0.01-1.901,0.302-2.781    c0.157-0.474,0.414-1.037,0.749-1.415c0.851-0.954,2.098-1.364,3.253-1.82C38.171,2.16,38.843,1.903,38.839,1.888z"/></g></g><text x="0" y="79" fill="#000000" font-size="5px" font-weight="bold" font-family="'Helvetica Neue', Helvetica, Arial-Unicode, Arial, Sans-serif">Created by Delwar Hossain</text><text x="0" y="84" fill="#000000" font-size="5px" font-weight="bold" font-family="'Helvetica Neue', Helvetica, Arial-Unicode, Arial, Sans-serif">from the Noun Project</text></svg>