<svg xmlns="http://www.w3.org/2000/svg" xmlns:xlink="http://www.w3.org/1999/xlink" version="1.1" x="0px" y="0px" viewBox="0 0 100 125" enable-background="new 0 0 100 100" xml:space="preserve"><g><g><path d="M57.899,18.656c-0.154-0.056-0.312-0.091-0.477-0.11c-2.385-0.562-4.867-0.87-7.424-0.87    c-17.822,0-32.322,14.501-32.322,32.323c0,17.823,14.5,32.325,32.322,32.325c17.824,0,32.324-14.502,32.324-32.325    C82.323,34.9,71.915,22.19,57.899,18.656z M77.952,52.706l-1.357-0.225l-2.479-7.852l1.758-5.564    c1.426,3.363,2.215,7.058,2.215,10.934C78.089,50.912,78.038,51.814,77.952,52.706z M55.983,22.566l0.24,0.318l-6.225,1.966    l-6.262-1.977l0.215-0.291c1.949-0.43,3.969-0.673,6.047-0.673C52.056,21.91,54.054,22.146,55.983,22.566z M24.337,38.629    l1.896,6.001l-2.439,7.719l-1.758,0.13c-0.072-0.819-0.127-1.644-0.127-2.479C21.909,45.95,22.788,42.109,24.337,38.629z     M29.685,69.347l5.334,0.666l5.193,4.703l-0.172,0.169c-0.326,0.32-0.488,0.724-0.564,1.14    C35.745,74.512,32.421,72.217,29.685,69.347z M43.599,77.326l1.184-1.159c0.416-0.408,0.646-0.971,0.635-1.554    s-0.264-1.136-0.697-1.528l-7.354-6.66c-0.322-0.291-0.727-0.478-1.16-0.531l-9.844-1.229c-0.094-0.011-0.186-0.007-0.277-0.005    c-1.504-2.442-2.639-5.128-3.342-7.986l2.793-0.207c0.865-0.063,1.602-0.647,1.863-1.474l3.072-9.724    c0.131-0.415,0.131-0.862,0-1.276l-3.072-9.727c-0.061-0.194-0.154-0.366-0.262-0.527c2.824-3.959,6.645-7.146,11.098-9.212    c0.012,0.043,0.012,0.087,0.025,0.128c0.211,0.651,0.723,1.158,1.377,1.365l9.725,3.07c0.207,0.065,0.422,0.099,0.637,0.099    s0.432-0.033,0.637-0.099l9.727-3.07c0.658-0.208,1.172-0.721,1.381-1.377c0.012-0.037,0.012-0.077,0.021-0.114    c4.555,2.111,8.455,5.394,11.297,9.478c-0.041,0.085-0.084,0.169-0.113,0.262l-3.072,9.725c-0.131,0.414-0.131,0.861,0,1.276    l3.072,9.727c0.24,0.76,0.887,1.32,1.674,1.45l2.58,0.427c-0.703,2.786-1.818,5.401-3.287,7.787    c-0.102-0.003-0.201-0.007-0.305,0.005l-9.846,1.229c-0.432,0.054-0.836,0.24-1.158,0.531l-7.355,6.66    c-0.432,0.393-0.684,0.945-0.695,1.528s0.219,1.146,0.635,1.554l1.188,1.165c-2.053,0.478-4.182,0.758-6.379,0.758    C47.794,78.09,45.657,77.809,43.599,77.326z M60.497,76.034c-0.074-0.42-0.236-0.828-0.564-1.149l-0.172-0.169l5.193-4.703    l5.363-0.67C67.575,72.221,64.241,74.52,60.497,76.034z"/><path d="M58.894,58.109l4.254-13.089c0.281-0.873-0.029-1.829-0.77-2.368l-11.133-8.089c-0.742-0.537-1.748-0.537-2.49,0    l-11.133,8.089c-0.742,0.539-1.051,1.495-0.77,2.368l4.252,13.089c0.285,0.871,1.098,1.462,2.014,1.462H56.88    C57.798,59.571,58.61,58.98,58.894,58.109z M44.657,55.337l-3.301-10.162l8.643-6.28l8.645,6.28l-3.301,10.162H44.657z"/></g></g><text x="0" y="115" fill="#000000" font-size="5px" font-weight="bold" font-family="'Helvetica Neue', Helvetica, Arial-Unicode, Arial, Sans-serif">Created by naim</text><text x="0" y="120" fill="#000000" font-size="5px" font-weight="bold" font-family="'Helvetica Neue', Helvetica, Arial-Unicode, Arial, Sans-serif">from the Noun Project</text></svg>