<svg xmlns="http://www.w3.org/2000/svg" xmlns:xlink="http://www.w3.org/1999/xlink" version="1.1" x="0px" y="0px" viewBox="0 0 100 125" style="enable-background:new 0 0 100 100;" xml:space="preserve"><rect x="56.2" y="18.2" width="13.8" height="4.2"/><rect x="56.1" y="28.5" width="13.9" height="4.2"/><rect x="32.5" y="39.4" width="37.5" height="4.2"/><rect x="32.6" y="50" width="37.5" height="4.2"/><rect x="32.6" y="60.6" width="37.5" height="4.2"/><rect x="32.6" y="71.4" width="37.5" height="4.2"/><path d="M77.8,2H24.7c-3.2,0-5.8,2.6-5.8,5.8v84.4c0,3.2,2.6,5.8,5.8,5.8h53.1c3.2,0,5.8-2.6,5.8-5.8V7.8  C83.6,4.6,81,2,77.8,2z M50.8,94.1c-1.6,0-2.9-1.3-2.9-2.9c0-1.6,1.3-2.9,2.9-2.9s2.9,1.3,2.9,2.9C53.7,92.8,52.4,94.1,50.8,94.1z   M77.2,83.8H25.6V9.6h51.6V83.8z"/><rect x="32.6" y="16.7" width="18.1" height="17.5"/><text x="0" y="115" fill="#000000" font-size="5px" font-weight="bold" font-family="'Helvetica Neue', Helvetica, Arial-Unicode, Arial, Sans-serif">Created by Aneeque Ahmed</text><text x="0" y="120" fill="#000000" font-size="5px" font-weight="bold" font-family="'Helvetica Neue', Helvetica, Arial-Unicode, Arial, Sans-serif">from the Noun Project</text></svg>