<svg xmlns="http://www.w3.org/2000/svg" xmlns:xlink="http://www.w3.org/1999/xlink" version="1.1" x="0px" y="0px" viewBox="0 0 25 31.25" style="enable-background:new 0 0 25 25;" xml:space="preserve"><path d="M20.4,12.7C20.5,12.6,20.5,12.6,20.4,12.7c0-0.1,0-0.1,0-0.1c0,0,0,0,0-0.1c0,0,0,0,0-0.1c0,0,0,0,0-0.1c0,0,0,0,0-0.1  c0,0,0,0,0,0c0,0,0,0,0-0.1c0,0,0,0,0,0c-1.6-2.8-4.7-4.6-7.9-4.6c-3.2,0-6.3,1.7-7.9,4.6c0,0,0,0,0,0c0,0,0,0,0,0.1c0,0,0,0,0,0  c0,0,0,0,0,0.1c0,0,0,0,0,0.1c0,0,0,0,0,0.1c0,0,0,0,0,0.1c0,0,0,0,0,0.1c0,0,0,0,0,0.1c0,0,0,0,0,0c0,0,0,0,0,0.1c0,0,0,0,0,0  c1.6,2.8,4.7,4.6,7.9,4.6c3.2,0,6.3-1.7,7.9-4.6c0,0,0,0,0,0C20.4,12.8,20.4,12.7,20.4,12.7C20.4,12.7,20.4,12.7,20.4,12.7z   M12.5,16.2c-2.7,0-5.3-1.4-6.7-3.7c1.5-2.3,4-3.7,6.7-3.7c2.7,0,5.3,1.4,6.7,3.7C17.8,14.8,15.2,16.2,12.5,16.2z"/><circle cx="12.5" cy="12.5" r="2.5"/><text x="0" y="40" fill="#000000" font-size="5px" font-weight="bold" font-family="'Helvetica Neue', Helvetica, Arial-Unicode, Arial, Sans-serif">Created by Sergio Aguado Antillaque</text><text x="0" y="45" fill="#000000" font-size="5px" font-weight="bold" font-family="'Helvetica Neue', Helvetica, Arial-Unicode, Arial, Sans-serif">from the Noun Project</text></svg>