<svg xmlns="http://www.w3.org/2000/svg" xmlns:xlink="http://www.w3.org/1999/xlink" version="1.1" x="0px" y="0px" viewBox="0 0 512 640" enable-background="new 0 0 512 512" xml:space="preserve"><path d="M416.008,0c-12.75,0-24.188,4.195-32,10.844C376.18,4.195,364.742,0,352.008,0  c-12.75,0-24.188,4.195-32,10.844C312.18,4.195,300.742,0,288.008,0c-12.75,0-24.188,4.195-32,10.844  C248.18,4.195,236.742,0,224.008,0c-12.75,0-24.188,4.195-32,10.844C184.18,4.195,172.742,0,160.008,0  c-12.75,0-24.188,4.195-32,10.844C120.18,4.195,108.742,0,96.008,0C72.43,0,53.336,14.328,53.336,32v448  c0,17.672,19.094,32,42.672,32c23.562,0,42.656-14.328,42.656-32v-36.281c6.281,2.719,13.562,4.281,21.344,4.281  c23.562,0,42.656-14.328,42.656-32v-36.281c6.281,2.719,13.562,4.281,21.344,4.281c23.562,0,42.656-14.328,42.656-32v-36.281  c6.281,2.719,13.562,4.281,21.344,4.281c23.562,0,42.656-14.328,42.656-32v-14.969c6.281,2.734,13.562,4.312,21.344,4.312  c23.562,0,42.656-14.344,42.656-32.008v-36.297c6.281,2.727,13.562,4.297,21.344,4.297c23.562,0,42.656-14.328,42.656-32V32  C458.664,14.328,439.57,0,416.008,0z M416.008,21.336c13.219,0,21.328,6.906,21.328,10.664v10.664h-42.672V32  C394.664,28.242,402.758,21.336,416.008,21.336z M437.336,74.664c-5.891,0-10.672,4.781-10.672,10.672S431.445,96,437.336,96v10.664  h-42.672V96c5.891,0,10.672-4.773,10.672-10.664s-4.781-10.672-10.672-10.672V64h42.672V74.664z M74.664,96  c5.891,0,10.672-4.773,10.672-10.664s-4.781-10.672-10.672-10.672V64h42.672v10.664c-5.891,0-10.672,4.781-10.672,10.672  S111.445,96,117.336,96v10.664H74.664V96z M138.664,96c5.891,0,10.672-4.773,10.672-10.664s-4.781-10.672-10.672-10.672V64h42.672  v10.664c-5.891,0-10.672,4.781-10.672,10.672S175.445,96,181.336,96v10.664h-42.672V96z M202.664,96  c5.891,0,10.672-4.773,10.672-10.664s-4.781-10.672-10.672-10.672V64h42.672v10.664c-5.891,0-10.672,4.781-10.672,10.672  S239.445,96,245.336,96v10.664h-42.672V96z M266.664,96c5.891,0,10.672-4.773,10.672-10.664s-4.781-10.672-10.672-10.672V64h42.672  v10.664c-5.891,0-10.672,4.781-10.672,10.672S303.445,96,309.336,96v10.664h-42.672V96z M330.664,96  c5.891,0,10.672-4.773,10.672-10.664s-4.781-10.672-10.672-10.672V64h42.672v10.664c-5.891,0-10.672,4.781-10.672,10.672  S367.445,96,373.336,96v10.664h-42.672V96z M352.008,21.336c13.219,0,21.328,6.906,21.328,10.664v10.664h-42.672V32  C330.664,28.242,338.758,21.336,352.008,21.336z M288.008,21.336c13.219,0,21.328,6.906,21.328,10.664v10.664h-42.672V32  C266.664,28.242,274.758,21.336,288.008,21.336z M224.008,21.336c13.219,0,21.328,6.906,21.328,10.664v10.664h-42.672V32  C202.664,28.242,210.758,21.336,224.008,21.336z M160.008,21.336c13.219,0,21.328,6.906,21.328,10.664v10.664h-42.672V32  C138.664,28.242,146.758,21.336,160.008,21.336z M96.008,21.336c13.219,0,21.328,6.906,21.328,10.664v10.664H74.664V32  C74.664,28.242,82.773,21.336,96.008,21.336z M117.336,480c0,3.75-8.109,10.656-21.328,10.656c-13.234,0-21.344-6.906-21.344-10.656  V128h42.672V480z M181.336,416c0,3.75-8.109,10.656-21.328,10.656c-13.25,0-21.344-6.906-21.344-10.656V128h42.672V416z   M245.336,352c0,3.75-8.109,10.656-21.328,10.656c-13.25,0-21.344-6.906-21.344-10.656V128h42.672V352z M309.336,288  c0,3.75-8.109,10.656-21.328,10.656c-13.25,0-21.344-6.906-21.344-10.656V128h42.672V288z M373.336,245.336  c0,3.758-8.109,10.664-21.328,10.664c-13.25,0-21.344-6.906-21.344-10.664V128h42.672V245.336z M416.008,192  c-13.25,0-21.344-6.906-21.344-10.664V128h42.672v53.336C437.336,185.094,429.227,192,416.008,192z"/><text x="0" y="527" fill="#000000" font-size="5px" font-weight="bold" font-family="'Helvetica Neue', Helvetica, Arial-Unicode, Arial, Sans-serif">Created by lastspark</text><text x="0" y="532" fill="#000000" font-size="5px" font-weight="bold" font-family="'Helvetica Neue', Helvetica, Arial-Unicode, Arial, Sans-serif">from the Noun Project</text></svg>