<svg xmlns="http://www.w3.org/2000/svg" xmlns:xlink="http://www.w3.org/1999/xlink" version="1.1" x="0px" y="0px" viewBox="0 0 100 125" enable-background="new 0 0 100 100" xml:space="preserve"><g><line fill="none" x1="49.108" y1="69.397" x2="49.108" y2="69.397"/><path fill="#000000" d="M77.827,61.122c-0.009,0.009-0.018,0.018-0.027,0.026c0.001,0,0.001,0,0.001,0   C77.81,61.14,77.818,61.131,77.827,61.122z"/><path d="M77.799,61.15c0.001-0.001,0.001-0.001,0.001-0.002c-4.884,4.892-10.279,8.005-17.665,6.842   c-1.404-0.219-2.806-0.39-4.188-0.604c1.382,0.216,2.783,0.387,4.188,0.605C67.52,69.155,72.916,66.042,77.799,61.15z"/><path d="M49.227,65.464c0.055-0.519,0.104-1.036,0.159-1.554c0-0.001-0.001-0.001-0.002-0.001   C49.33,64.427,49.28,64.945,49.227,65.464z"/><path d="M82.061,57.216c2.255-1.641,5.727-1.314,7.078,0.425c0.875,1.131,1.075,2.739,0.674,4.273   c0.402-1.534,0.201-3.144-0.674-4.275c-1.35-1.739-4.821-2.065-7.078-0.425c-1.541,1.121-2.875,2.548-4.233,3.908   C79.186,59.762,80.519,58.337,82.061,57.216z"/><path d="M29.49,53.166c1.883-0.991,4.618-0.695,6.918-0.495c7.869,0.672,15.725,1.542,23.58,2.386   c1.896,0.203,3.814,0.43,5.656,0.916c2.299,0.599,3.752,2.064,3.528,4.664c-0.062,0.726-0.286,1.424-0.641,2.052   c0.355-0.628,0.58-1.327,0.644-2.053c0.222-2.604-1.231-4.066-3.531-4.666c-1.842-0.486-3.76-0.713-5.654-0.915   c-7.856-0.842-15.712-1.714-23.581-2.386c-2.299-0.199-5.034-0.495-6.917,0.494c-6.627,3.486-13.058,7.342-19.502,11.174l0,0   C16.434,60.508,22.864,56.651,29.49,53.166z"/><path d="M35.592,78.2c9.875,0.492,19.79,0.007,29.688,0.185c4.3,0.081,7.931-0.771,11.182-3.828   c3.58-3.368,7.573-6.291,11.352-9.454c1.009-0.846,1.687-1.995,1.999-3.188c-0.312,1.192-0.99,2.342-1.999,3.186   c-3.776,3.164-7.771,6.087-11.352,9.454c-3.251,3.058-6.882,3.911-11.182,3.829c-9.896-0.178-19.813,0.306-29.687-0.184   c-4.754-0.237-8.926,0.759-12.876,2.633c0,0.001,0.001,0.001,0.001,0.001C26.668,78.959,30.84,77.964,35.592,78.2z"/><path d="M77.827,61.122c-0.009,0.009-0.018,0.018-0.027,0.026c0.001,0,0.001,0,0.001,0C77.81,61.14,77.818,61.131,77.827,61.122z"/><path d="M64.569,65.282c-1.674,0.177-3.415-0.114-5.115-0.287c-3.359-0.327-6.709-0.722-10.068-1.088c0,0.001,0,0.002,0,0.003   c3.36,0.364,6.709,0.76,10.068,1.087C61.151,65.169,62.895,65.463,64.569,65.282c1.754-0.187,3.178-1.215,3.962-2.594   C67.746,64.066,66.323,65.096,64.569,65.282z"/><path d="M49.227,65.464c2.136,1.072,4.401,1.562,6.721,1.922C53.628,67.024,51.362,66.535,49.227,65.464z"/><path d="M59.567,44.8v-8.75c1.707-1.415,4.807-4.469,4.807-8.019c0-4.896-5.909-8.864-5.909-8.864s-5.909,3.969-5.909,8.864   c0,3.61,3.21,6.711,4.896,8.093v8.673c-7.296,0.223-13.718,2.549-17.785,6.046c6.019,0.551,12.069,1.197,17.954,1.832l2.592,0.28   c2.019,0.215,3.996,0.452,5.971,0.974c3.48,0.906,5.388,3.482,5.096,6.889c-0.088,1.022-0.394,2.002-0.908,2.912   c-0.162,0.286-0.344,0.559-0.541,0.817c1.938-0.958,3.859-2.373,5.854-4.285v-0.055l0.7-0.63l0.544-0.552   c1.198-1.212,2.437-2.464,3.889-3.521c0.086-0.062,0.186-0.107,0.274-0.166C78.256,49.413,69.745,45.062,59.567,44.8z"/><path d="M65.644,55.973c-1.842-0.486-3.761-0.713-5.656-0.916c-7.854-0.844-15.71-1.714-23.58-2.386   c-2.3-0.2-5.035-0.496-6.918,0.495c-6.625,3.485-13.056,7.342-19.5,11.171c3.098,6.331,7.447,11.938,12.728,16.495   c3.95-1.874,8.123-2.87,12.876-2.633c9.873,0.489,19.791,0.006,29.687,0.184c4.3,0.082,7.931-0.771,11.182-3.829   c3.581-3.367,7.575-6.29,11.352-9.454c1.009-0.844,1.687-1.993,1.999-3.186c0.401-1.534,0.201-3.143-0.674-4.273   c-1.352-1.739-4.823-2.065-7.078-0.425c-1.542,1.121-2.875,2.546-4.233,3.906c-0.009,0.009-0.018,0.018-0.026,0.026   c0,0,0,0-0.001,0c0,0.001,0,0.001-0.001,0.002c-4.883,4.892-10.279,8.005-17.664,6.841c-1.404-0.219-2.806-0.39-4.188-0.605   c-2.319-0.36-4.585-0.85-6.721-1.922c0.054-0.519,0.104-1.037,0.157-1.555c0.001,0,0.002,0,0.002,0.001c0-0.001,0-0.002,0-0.003   c3.359,0.366,6.709,0.761,10.068,1.088c1.7,0.173,3.441,0.464,5.115,0.287c1.754-0.187,3.177-1.216,3.962-2.594   c0.354-0.628,0.579-1.326,0.641-2.052C69.396,58.037,67.942,56.571,65.644,55.973z"/></g><text x="0" y="115" fill="#000000" font-size="5px" font-weight="bold" font-family="'Helvetica Neue', Helvetica, Arial-Unicode, Arial, Sans-serif">Created by Marwa Boukarim</text><text x="0" y="120" fill="#000000" font-size="5px" font-weight="bold" font-family="'Helvetica Neue', Helvetica, Arial-Unicode, Arial, Sans-serif">from the Noun Project</text></svg>