<svg xmlns="http://www.w3.org/2000/svg" xmlns:xlink="http://www.w3.org/1999/xlink" version="1.1" x="0px" y="0px" viewBox="0 0 100 125" enable-background="new 0 0 100 100" xml:space="preserve"><circle cx="72" cy="30" r="8"/><path d="M90.172,34.172c-1.562-1.562-4.095-1.562-5.657,0L76.686,42h-9.029l-8-8c-1.562-1.562-4.095-1.562-5.657,0  c-1.562,1.562-1.562,4.095,0,5.657l8,8V62v4v12c0,2.209,1.791,4,4,4s4-1.791,4-4V66h4v12c0,2.209,1.791,4,4,4s4-1.791,4-4V66v-4V48  l8.172-8.172C91.734,38.266,91.734,35.734,90.172,34.172z"/><path d="M20,30c0,4.418,3.582,8,8,8s8-3.582,8-8c0-1.459-0.397-2.822-1.079-4H42c0-2.209-1.791-4-4-4  c-1.828,0-3.352,1.233-3.83,2.908C32.703,23.132,30.484,22,28,22s-4.703,1.132-6.17,2.908C21.352,23.233,19.828,22,18,22  c-2.209,0-4,1.791-4,4h7.079C20.397,27.178,20,28.541,20,30z"/><path d="M46.172,34.172c-1.562-1.562-4.095-1.562-5.657,0L32.686,42h-9.029l-8-8c-1.562-1.562-4.095-1.562-5.657,0  c-1.562,1.562-1.562,4.095,0,5.657l7.293,7.293L14,70h4v8c0,2.209,1.791,4,4,4s4-1.791,4-4v-8h4v8c0,2.209,1.791,4,4,4s4-1.791,4-4  v-8h4l-3.25-22.75l7.422-7.422C47.734,38.266,47.734,35.734,46.172,34.172z"/><text x="0" y="115" fill="#000000" font-size="5px" font-weight="bold" font-family="'Helvetica Neue', Helvetica, Arial-Unicode, Arial, Sans-serif">Created by Gabriele Malaspina</text><text x="0" y="120" fill="#000000" font-size="5px" font-weight="bold" font-family="'Helvetica Neue', Helvetica, Arial-Unicode, Arial, Sans-serif">from the Noun Project</text></svg>