<svg xmlns="http://www.w3.org/2000/svg" xmlns:xlink="http://www.w3.org/1999/xlink" version="1.1" x="0px" y="0px" viewBox="0 0 100 125" enable-background="new 0 0 100 100" xml:space="preserve"><path d="M88.912,25h-13.91c-1.67,0-3.179,0.452-4.387,1.737c-0.01,0.008-0.021-0.139-0.03-0.132L19.286,64h-9.9  C5.307,64,2,69.054,2,73.586v8.206C2,86.326,5.307,90,9.386,90h13.912c1.864,0,3.729-0.773,5.209-2.038  c0.042-0.031,0.086-0.21,0.127-0.24L79.959,50h8.953C92.991,50,97,46.44,97,41.907v-8.207C97,29.168,92.991,25,88.912,25z"/><circle cx="41.674" cy="14.187" r="5.717"/><path d="M48,36.206v-7.372C48,25.314,47.241,22,43.454,22h-0.829C38.838,22,36,25.314,36,28.833v17.199L48,36.206z"/><text x="0" y="115" fill="#000000" font-size="5px" font-weight="bold" font-family="'Helvetica Neue', Helvetica, Arial-Unicode, Arial, Sans-serif">Created by bmijnlieff</text><text x="0" y="120" fill="#000000" font-size="5px" font-weight="bold" font-family="'Helvetica Neue', Helvetica, Arial-Unicode, Arial, Sans-serif">from the Noun Project</text></svg>